<?xml version="1.0" encoding="utf-8"?>
<svg version="1.1" xmlns="http://www.w3.org/2000/svg" xmlns:xlink="http://www.w3.org/1999/xlink" x="0px" y="0px"
	 viewBox="0 0 12 20" xml:space="preserve">
    <path d="M7 20H5v-2.2c-2.3-.2-3.8-1.2-4.7-2.1l1.4-1.4c.8.8 2.1 1.7 4.2 1.6.6 0 1.2-.1 1.8-.3 1.2-.3 1.9-1.2 1.9-2.2-.1-1.2-1.5-2.1-3.7-2.4-2.6-.3-4.4-1.3-5.2-2.8-.5-1-.5-2.1 0-3.1.8-1.8 2.3-2.8 4.3-3V0h2v2.2c1.9.4 3.5 1.4 4.4 2.7L9.6 6C9 5 7.5 4.2 5.9 4.1 5 4 3.3 4.2 2.4 5.9c-.2.4-.2.9 0 1.3.5.9 1.9 1.6 3.7 1.8 3.8.5 5.3 2.5 5.5 4.2.1 1.9-1.2 3.6-3.3 4.2-.4.1-.9.2-1.3.3V20z"></path>
</svg>
