<?xml version="1.0" encoding="utf-8"?>
<!-- Generator: Adobe Illustrator 24.3.0, SVG Export Plug-In . SVG Version: 6.00 Build 0)  -->
<svg version="1.1" id="Слой_1" xmlns="http://www.w3.org/2000/svg" xmlns:xlink="http://www.w3.org/1999/xlink" x="0px" y="0px"
	 viewBox="0 0 12 20" style="enable-background:new 0 0 12 20;" xml:space="preserve">
<style type="text/css">
	.st0{fill:#A2ACBD;}
</style>
<path class="st0" d="M7,20H5v-2.2c-2.3-0.2-3.8-1.2-4.7-2.1l1.4-1.4c0.8,0.8,2.1,1.7,4.2,1.6l0,0c0.6,0,1.2-0.1,1.8-0.3
	c1.2-0.3,1.9-1.2,1.9-2.2c-0.1-1.2-1.5-2.1-3.7-2.4c-2.6-0.3-4.4-1.3-5.2-2.8c-0.5-1-0.5-2.1,0-3.1C1.5,3.3,3,2.3,5,2.1V0h2v2.2
	c1.9,0.4,3.5,1.4,4.4,2.7L9.6,6C9,5,7.5,4.2,5.9,4.1l0,0C5,4,3.3,4.2,2.4,5.9c-0.2,0.4-0.2,0.9,0,1.3C2.9,8.1,4.3,8.8,6.1,9
	c3.8,0.5,5.3,2.5,5.5,4.2c0.1,1.9-1.2,3.6-3.3,4.2c-0.4,0.1-0.9,0.2-1.3,0.3V20z"/>
</svg>
