<svg width="24" height="24" viewBox="0 0 24 24" xmlns="http://www.w3.org/2000/svg">
<path d="M7 9H5V14H7V9Z" fill="#A2ACBD"/>
<path fill-rule="evenodd" clip-rule="evenodd" d="M13.5 7.5C12.4391 7.5 11.4217 7.92143 10.6716 8.67157C9.92137 9.42172 9.5 10.4391 9.5 11.5C9.5 12.5609 9.92137 13.5783 10.6715 14.3285C11.4217 15.0786 12.4391 15.5 13.5 15.5C14.5609 15.5 15.5783 15.0786 16.3285 14.3285C17.0786 13.5783 17.5 12.5609 17.5 11.5C17.5 10.4391 17.0786 9.42172 16.3284 8.67157C15.5783 7.92143 14.5609 7.5 13.5 7.5ZM12.0857 10.0858C11.7107 10.4609 11.5 10.9696 11.5 11.5C11.5 12.0303 11.7107 12.5391 12.0857 12.9142C12.4609 13.2892 12.9697 13.5 13.5 13.5C14.0303 13.5 14.5391 13.2892 14.9143 12.9142C15.2893 12.5391 15.5 12.0303 15.5 11.5C15.5 10.9696 15.2893 10.4609 14.9143 10.0858C14.5391 9.71071 14.0304 9.5 13.5 9.5C12.9696 9.5 12.4609 9.71071 12.0857 10.0858Z" fill="#A2ACBD"/>
<path fill-rule="evenodd" clip-rule="evenodd" d="M4 4C3.46957 4 2.96085 4.21072 2.58579 4.58579C2.21072 4.96085 2 5.46957 2 6V17C2 17.5304 2.21071 18.0392 2.58579 18.4143C2.96088 18.7893 3.4696 19 4 19V20H6V19H17V20H19V19C19.5304 19 20.0391 18.7894 20.4143 18.4143C20.7894 18.0391 21 17.5304 21 17V16H22V14H21V9H22V7H21V6C21 5.4696 20.7893 4.96088 20.4143 4.58579C20.0392 4.21071 19.5304 4 19 4H4ZM19 6H4V17H19V6Z" fill="#A2ACBD"/>
</svg>
