<svg id="Слой_1" data-name="Слой 1" xmlns="http://www.w3.org/2000/svg" width="196.25" height="152.33" viewBox="0 0 196.25 152.33"><defs><style>.cls-1{fill:#a2acbd;}</style></defs><title>custodian</title><path class="cls-1" d="M733.5,146.5v-20H721.25V110.17a10,10,0,0,0-10-10h-164a10,10,0,0,0-10,10V229.5a10,10,0,0,0,10,10H554V252h20V239.5H683.5v13h20v-13h7.75a10,10,0,0,0,10-10v-15H733.5v-20H721.25v-48ZM556,223.71V116H701.5V223.71Zm32.5-27.21h-20v-50h20Zm60-62a35,35,0,1,0,35,35A35,35,0,0,0,648.5,134.5Zm-.25,51.25a16,16,0,1,1,16-16A16,16,0,0,1,648.25,185.75Z" transform="translate(-537.25 -100.17)"/></svg>