<svg width="20" height="16" viewBox="0 0 20 16" fill="none" xmlns="http://www.w3.org/2000/svg">
<path d="M2.5 15V14.5H2C1.60218 14.5 1.22064 14.342 0.93934 14.0607C0.658035 13.7794 0.5 13.3978 0.5 13V2C0.5 1.60218 0.658035 1.22064 0.93934 0.93934C1.22064 0.658035 1.60218 0.5 2 0.5H17C17.3978 0.5 17.7794 0.658035 18.0607 0.93934C18.342 1.22064 18.5 1.60218 18.5 2V3V3.5H19H19.5V4.5H19H18.5V5V10V10.5H19H19.5V11.5H19H18.5V12V13C18.5 13.3978 18.342 13.7794 18.0607 14.0607C17.7794 14.342 17.3978 14.5 17 14.5H16.5V15V15.5H15.5V15V14.5H15H4H3.5V15V15.5H2.5V15ZM2 1.5H1.5V2V13V13.5H2H17H17.5V13V2V1.5H17H2ZM9.02513 5.02513C9.6815 4.36875 10.5717 4 11.5 4C12.4283 4 13.3185 4.36875 13.9749 5.02513C14.6313 5.6815 15 6.57174 15 7.5C15 8.42826 14.6313 9.3185 13.9749 9.97487C13.3185 10.6313 12.4283 11 11.5 11C10.5717 11 9.6815 10.6313 9.02513 9.97487C8.36875 9.3185 8 8.42826 8 7.5C8 6.57174 8.36875 5.6815 9.02513 5.02513ZM4.5 9.5H3.5V5.5H4.5V9.5ZM13.2678 5.73223C12.7989 5.26339 12.163 5 11.5 5C10.837 5 10.2011 5.26339 9.73223 5.73223C9.26339 6.20107 9 6.83696 9 7.5C9 8.16304 9.26339 8.79893 9.73223 9.26777C10.2011 9.73661 10.837 10 11.5 10C12.163 10 12.7989 9.73661 13.2678 9.26777C13.7366 8.79893 14 8.16304 14 7.5C14 6.83696 13.7366 6.20107 13.2678 5.73223Z" fill="#A2ACBD" stroke="#A2ACBD"/>
</svg>
