<?xml version="1.0" encoding="utf-8"?>
<!-- Generator: Adobe Illustrator 24.3.0, SVG Export Plug-In . SVG Version: 6.00 Build 0)  -->
<svg version="1.1" id="Слой_1" xmlns="http://www.w3.org/2000/svg" xmlns:xlink="http://www.w3.org/1999/xlink" x="0px" y="0px"
	 viewBox="0 0 19 22" style="enable-background:new 0 0 19 22;" xml:space="preserve">
<style type="text/css">
	.st0{fill:#A2ACBD;}
</style>
<path class="st0" d="M9,22H3c-0.8,0-1.6-0.3-2.1-0.9C0.3,20.6,0,19.8,0,19V3c0-0.8,0.3-1.6,0.9-2.1C1.4,0.3,2.2,0,3,0h8c0,0,0,0,0,0
	l0,0c0.1,0,0.3,0,0.4,0.1c0.1,0,0.2,0.1,0.3,0.2l6,6c0.1,0.1,0.2,0.2,0.2,0.3C18,6.7,18,6.9,18,7l0,0c0,0,0,0,0,0v3.5
	c0,0.6-0.4,1-1,1s-1-0.4-1-1V8h-5c-0.6,0-1-0.4-1-1V2H3C2.7,2,2.5,2.1,2.3,2.3C2.1,2.5,2,2.7,2,3v16c0,0.3,0.1,0.5,0.3,0.7
	C2.5,19.9,2.7,20,3,20h6c0.6,0,1,0.4,1,1S9.6,22,9,22z M12,6h2.6L12,3.4V6z M17.8,21.8c-0.3,0-0.5-0.1-0.7-0.3L15.6,20
	c-0.7,0.4-1.4,0.6-2.3,0.6c-2.4,0-4.3-1.9-4.3-4.3s1.9-4.3,4.3-4.3s4.3,1.9,4.3,4.3c0,0.8-0.2,1.6-0.6,2.3l1.5,1.5
	c0.4,0.4,0.4,1,0,1.4C18.3,21.7,18.1,21.8,17.8,21.8z M13.3,14C12,14,11,15,11,16.3c0,1.3,1,2.3,2.3,2.3c1.3,0,2.3-1,2.3-2.3
	C15.7,15,14.6,14,13.3,14z M7,17H5c-0.6,0-1-0.4-1-1s0.4-1,1-1h2c0.6,0,1,0.4,1,1S7.6,17,7,17z M9,13H5c-0.6,0-1-0.4-1-1
	c0-0.6,0.4-1,1-1h4c0.6,0,1,0.4,1,1C10,12.6,9.6,13,9,13z M7,9H5C4.4,9,4,8.6,4,8s0.4-1,1-1h2c0.6,0,1,0.4,1,1S7.6,9,7,9z"/>
</svg>
