<?xml version="1.0" encoding="utf-8"?>
<!-- Generator: Adobe Illustrator 24.0.0, SVG Export Plug-In . SVG Version: 6.00 Build 0)  -->
<svg version="1.1" id="Слой_1" xmlns="http://www.w3.org/2000/svg" xmlns:xlink="http://www.w3.org/1999/xlink" x="0px" y="0px"
	 viewBox="0 0 24 24" style="enable-background:new 0 0 24 24;" xml:space="preserve">
<style type="text/css">
	.st0{fill:#A2ACBD;}
</style>
<g>
	<path class="st0" d="M12,23H6c-0.8,0-1.6-0.3-2.1-0.9C3.3,21.6,3,20.8,3,20V4c0-0.8,0.3-1.6,0.9-2.1C4.4,1.3,5.2,1,6,1h8
		c0,0,0,0,0,0l0,0c0.1,0,0.3,0,0.4,0.1c0.1,0,0.2,0.1,0.3,0.2l6,6c0.1,0.1,0.2,0.2,0.2,0.3C21,7.7,21,7.9,21,8l0,0c0,0,0,0,0,0v3.5
		c0,0.6-0.4,1-1,1s-1-0.4-1-1V9h-5c-0.6,0-1-0.4-1-1V3H6C5.7,3,5.5,3.1,5.3,3.3C5.1,3.5,5,3.7,5,4v16c0,0.3,0.1,0.5,0.3,0.7
		C5.5,20.9,5.7,21,6,21h6c0.6,0,1,0.4,1,1S12.6,23,12,23z M15,7h2.6L15,4.4V7z M20.8,22.8c-0.3,0-0.5-0.1-0.7-0.3L18.6,21
		c-0.7,0.4-1.4,0.6-2.3,0.6c-2.4,0-4.3-1.9-4.3-4.3s1.9-4.3,4.3-4.3s4.3,1.9,4.3,4.3c0,0.8-0.2,1.6-0.6,2.3l1.5,1.5
		c0.4,0.4,0.4,1,0,1.4C21.3,22.7,21.1,22.8,20.8,22.8z M16.3,15C15,15,14,16,14,17.3c0,1.3,1,2.3,2.3,2.3c1.3,0,2.3-1,2.3-2.3
		C18.7,16,17.6,15,16.3,15z M10,18H8c-0.6,0-1-0.4-1-1s0.4-1,1-1h2c0.6,0,1,0.4,1,1S10.6,18,10,18z M12,14H8c-0.6,0-1-0.4-1-1
		c0-0.6,0.4-1,1-1h4c0.6,0,1,0.4,1,1C13,13.6,12.6,14,12,14z M10,10H8c-0.6,0-1-0.4-1-1s0.4-1,1-1h2c0.6,0,1,0.4,1,1S10.6,10,10,10z
		"/>
</g>
</svg>
