<?xml version="1.0" encoding="utf-8"?>
<svg version="1.1" xmlns="http://www.w3.org/2000/svg" xmlns:xlink="http://www.w3.org/1999/xlink" x="0px" y="0px"
	 viewBox="0 0 19 22" xml:space="preserve">
    <path d="M9 22H3c-.8 0-1.6-.3-2.1-.9-.6-.5-.9-1.3-.9-2.1V3C0 2.2.3 1.4.9.9 1.4.3 2.2 0 3 0h8c.1 0 .3 0 .4.1.1 0 .2.1.3.2l6 6c.1.1.2.2.2.3.1.1.1.3.1.4v3.5c0 .6-.4 1-1 1s-1-.4-1-1V8h-5c-.6 0-1-.4-1-1V2H3c-.3 0-.5.1-.7.3-.2.2-.3.4-.3.7v16c0 .3.1.5.3.7.2.2.4.3.7.3h6c.6 0 1 .4 1 1s-.4 1-1 1zm3-16h2.6L12 3.4V6zm5.8 15.8c-.3 0-.5-.1-.7-.3L15.6 20c-.7.4-1.4.6-2.3.6-2.4 0-4.3-1.9-4.3-4.3s1.9-4.3 4.3-4.3 4.3 1.9 4.3 4.3c0 .8-.2 1.6-.6 2.3l1.5 1.5c.4.4.4 1 0 1.4-.2.2-.4.3-.7.3zM13.3 14C12 14 11 15 11 16.3c0 1.3 1 2.3 2.3 2.3 1.3 0 2.3-1 2.3-2.3.1-1.3-1-2.3-2.3-2.3zM7 17H5c-.6 0-1-.4-1-1s.4-1 1-1h2c.6 0 1 .4 1 1s-.4 1-1 1zm2-4H5c-.6 0-1-.4-1-1s.4-1 1-1h4c.6 0 1 .4 1 1s-.4 1-1 1zM7 9H5c-.6 0-1-.4-1-1s.4-1 1-1h2c.6 0 1 .4 1 1s-.4 1-1 1z"></path>
</svg>
