<svg width="19" height="22" viewBox="0 0 19 22" fill="none" xmlns="http://www.w3.org/2000/svg">
<path d="M11 1H3C2.46957 1 1.96086 1.21071 1.58579 1.58579C1.21071 1.96086 1 2.46957 1 3V19C1 19.5304 1.21071 20.0391 1.58579 20.4142C1.96086 20.7893 2.46957 21 3 21H9M11 1L17 7M11 1V7H17M17 7V10.5M9 12H5M7 16H5M7 8H5M17.8125 20.8125L16 19M16.6667 16.3333C16.6667 18.1743 15.1743 19.6667 13.3333 19.6667C11.4924 19.6667 10 18.1743 10 16.3333C10 14.4924 11.4924 13 13.3333 13C15.1743 13 16.6667 14.4924 16.6667 16.3333Z" stroke="#A2ACBD" stroke-width="2" stroke-linecap="round" stroke-linejoin="round"/>
</svg>
