<?xml version="1.0" encoding="utf-8"?>
<!-- Generator: Adobe Illustrator 24.3.0, SVG Export Plug-In . SVG Version: 6.00 Build 0)  -->
<svg version="1.1" id="Слой_1" xmlns="http://www.w3.org/2000/svg" xmlns:xlink="http://www.w3.org/1999/xlink" x="0px" y="0px"
	 viewBox="0 0 20 22" style="enable-background:new 0 0 20 22;" xml:space="preserve">
<style type="text/css">
	.st0{fill:#A2ACBD;}
</style>
<path class="st0" d="M19,22H1c-0.6,0-1-0.4-1-1V8c0-0.3,0.1-0.6,0.4-0.8l9-7c0.4-0.3,0.9-0.3,1.2,0l9,7C19.9,7.4,20,7.7,20,8v13
	C20,21.6,19.6,22,19,22z M14,20h4V8.5l-8-6.2L2,8.5V20h4v-9c0-0.6,0.4-1,1-1h6c0.6,0,1,0.4,1,1V20z M8,20h4v-8H8V20z"/>
</svg>
