<svg width="22" height="22" viewBox="0 0 22 22" xmlns="http://www.w3.org/2000/svg">
<path fill="#A2ACBD" stroke="#A2ACBD" stroke-width="0" d="M21 10.0948L21.4005 11.0111L22 10.749V10.0948H21ZM1 10.0948H0V10.749L0.599475 11.0111L1 10.0948ZM7.02941 4.91292L7.02941 5.91293L7.03374 5.91291L7.02941 4.91292ZM8.5 4.91292H7.5V5.91292H8.5V4.91292ZM1 13.0076L1.37765 12.0816L0 11.5197V13.0076H1ZM21 13.0076H22V11.5197L20.6224 12.0816L21 13.0076ZM12.3529 18.6303C12.9052 18.6303 13.3529 18.1826 13.3529 17.6303C13.3529 17.078 12.9052 16.6303 12.3529 16.6303V18.6303ZM10 16.6303C9.44772 16.6303 9 17.078 9 17.6303C9 18.1826 9.44772 18.6303 10 18.6303V16.6303ZM8.5 4.90655H9.5V3.90222L8.49567 3.90656L8.5 4.90655ZM12.3529 9.48381C12.9052 9.48381 13.3529 9.03609 13.3529 8.48381C13.3529 7.93152 12.9052 7.48381 12.3529 7.48381V9.48381ZM10 7.48381C9.44772 7.48381 9 7.93152 9 8.48381C9 9.03609 9.44772 9.48381 10 9.48381V7.48381ZM20 6.30876V10.0948H22V6.30876H20ZM20.5995 9.17848C17.9487 10.3372 14.6174 11.0141 11 11.0141V13.0141C14.8532 13.0141 18.463 12.2951 21.4005 11.0111L20.5995 9.17848ZM11 11.0141C7.38264 11.0141 4.05127 10.3372 1.40053 9.17848L0.599475 11.0111C3.53696 12.2951 7.14677 13.0141 11 13.0141V11.0141ZM2 10.0948V6.30876H0V10.0948H2ZM2 6.30876C2 6.15171 2.05472 6.03327 2.11022 5.96741C2.16446 5.90306 2.19271 5.91292 2.17647 5.91292V3.91292C0.82372 3.91292 0 5.15581 0 6.30876H2ZM2.17647 5.91292H7.02941V3.91292H2.17647V5.91292ZM19.8235 5.91292C19.8073 5.91292 19.8355 5.90306 19.8898 5.96741C19.9453 6.03327 20 6.15171 20 6.30876H22C22 5.1558 21.1763 3.91292 19.8235 3.91292V5.91292ZM2 19.6041V13.0076H0V19.6041H2ZM0.622354 13.9335C3.57964 15.1396 7.15107 15.8222 11 15.8222V13.8222C7.37834 13.8222 4.06742 13.1786 1.37765 12.0816L0.622354 13.9335ZM11 15.8222C14.8489 15.8222 18.4204 15.1396 21.3776 13.9335L20.6224 12.0816C17.9326 13.1786 14.6217 13.8222 11 13.8222V15.8222ZM20 13.0076V19.6041H22V13.0076H20ZM20 19.6041C20 19.7612 19.9453 19.8796 19.8898 19.9455C19.8355 20.0098 19.8073 20 19.8235 20V22C21.1763 22 22 20.7571 22 19.6041H20ZM19.8235 20H2.17647V22H19.8235V20ZM2.17647 20C2.19271 20 2.16446 20.0098 2.11022 19.9455C2.05472 19.8796 2 19.7612 2 19.6041H0C0 20.7571 0.823721 22 2.17647 22V20ZM12.3529 16.6303H10V18.6303H12.3529V16.6303ZM7.5 4.90655V4.91292H9.5V4.90655H7.5ZM15.2955 4.91292V4.30214H13.2955V4.91292H15.2955ZM7.03374 5.91291L7.82251 5.90949L7.81385 3.90951L7.02508 3.91293L7.03374 5.91291ZM7.82251 5.90949L8.50433 5.90654L8.49567 3.90656L7.81385 3.90951L7.82251 5.90949ZM6.81818 4.17513V4.9095H8.81818V4.17513H6.81818ZM10.9933 0C8.68745 0 6.81818 1.86927 6.81818 4.17513H8.81818C8.81818 2.97384 9.79202 2 10.9933 2V0ZM15.2955 4.30214C15.2955 1.92613 13.3693 0 10.9933 0V2C12.2648 2 13.2955 3.0307 13.2955 4.30214H15.2955ZM8.5 5.91292H14.2955V3.91292H8.5V5.91292ZM14.2955 5.91292H19.8235V3.91292H14.2955V5.91292ZM12.3529 7.48381H10V9.48381H12.3529V7.48381Z"/>
</svg>
