<?xml version="1.0" encoding="utf-8"?>
<!-- Generator: Adobe Illustrator 24.3.0, SVG Export Plug-In . SVG Version: 6.00 Build 0)  -->
<svg version="1.1" xmlns="http://www.w3.org/2000/svg" xmlns:xlink="http://www.w3.org/1999/xlink" x="0px" y="0px"
	 viewBox="0 0 22 22" xml:space="preserve">
<path d="M13.4 17.6c0 .6-.4 1-1 1H10c-.6 0-1-.4-1-1s.4-1 1-1h2.4c.5 0 1 .5 1 1zm7.2-5.5l1.4-.6v8.1c0 1.2-.8 2.4-2.2 2.4H2.2C.8 22 0 20.8 0 19.6v-8.1l1.4.6c2.7 1.1 6 1.7 9.6 1.7 3.6 0 6.9-.6 9.6-1.7zm-.6 7.5v-5.2c-2.7.9-5.7 1.4-9 1.4s-6.3-.5-9-1.4v5.2c0 .2.1.3.1.3l.1.1h17.6l.1-.1s.1-.1.1-.3zm2-13.3v4.5l-.6.2c-2.9 1.3-6.5 2-10.4 2S3.5 12.3.6 11l-.6-.3V6.3c0-1.2.8-2.4 2.2-2.4h4.7C7 1.7 8.8 0 11 0c2.2 0 4.1 1.7 4.3 3.9h4.6c1.3 0 2.1 1.3 2.1 2.4zM8.8 3.9h4.5C13.1 2.8 12.1 2 11 2c-1.1 0-2 .8-2.2 1.9zM11 11c3.4 0 6.5-.6 9-1.6V6.3c0-.1-.1-.3-.1-.3l-.1-.1H2.2l-.1.1s-.1.2-.1.3v3.1c2.5 1 5.6 1.6 9 1.6zm1.4-3.5H10c-.6 0-1 .4-1 1s.4 1 1 1h2.4c.6 0 1-.4 1-1s-.5-1-1-1z"></path>
</svg>
