<svg width="24" height="24" viewBox="0 0 24 24" fill="none" xmlns="http://www.w3.org/2000/svg">
<path fill="#A2ACBD" d="M22 11.0948L22.4005 12.0111L23 11.749V11.0948H22ZM2 11.0948H1V11.749L1.59947 12.0111L2 11.0948ZM8.02941 5.91293L8.02941 6.91294L8.03374 6.91292L8.02941 5.91293ZM9.5 5.91293H8.5V6.91293H9.5V5.91293ZM13.3529 10.4838C13.9052 10.4838 14.3529 10.0361 14.3529 9.48382C14.3529 8.93154 13.9052 8.48382 13.3529 8.48382V10.4838ZM11 8.48382C10.4477 8.48382 10 8.93154 10 9.48382C10 10.0361 10.4477 10.4838 11 10.4838V8.48382ZM2 14.0076L2.37765 13.0816L1 12.5198V14.0076H2ZM22 14.0076H23V12.5198L21.6224 13.0816L22 14.0076ZM13.3529 19.6303C13.9052 19.6303 14.3529 19.1826 14.3529 18.6303C14.3529 18.0781 13.9052 17.6303 13.3529 17.6303V19.6303ZM11 17.6303C10.4477 17.6303 10 18.0781 10 18.6303C10 19.1826 10.4477 19.6303 11 19.6303V17.6303ZM9.5 5.90657H10.5V4.90223L9.49567 4.90658L9.5 5.90657ZM21 7.30877V11.0948H23V7.30877H21ZM21.5995 10.1785C18.9487 11.3372 15.6174 12.0141 12 12.0141V14.0141C15.8532 14.0141 19.463 13.2951 22.4005 12.0111L21.5995 10.1785ZM12 12.0141C8.38264 12.0141 5.05127 11.3372 2.40053 10.1785L1.59947 12.0111C4.53696 13.2951 8.14677 14.0141 12 14.0141V12.0141ZM3 11.0948V7.30877H1V11.0948H3ZM3 7.30877C3 7.15173 3.05472 7.03328 3.11022 6.96742C3.16446 6.90307 3.19271 6.91293 3.17647 6.91293V4.91293C1.82372 4.91293 1 6.15582 1 7.30877H3ZM3.17647 6.91293H8.02941V4.91293H3.17647V6.91293ZM20.8235 6.91293C20.8073 6.91293 20.8355 6.90307 20.8898 6.96742C20.9453 7.03328 21 7.15173 21 7.30877H23C23 6.15582 22.1763 4.91293 20.8235 4.91293V6.91293ZM9.5 6.91293H14.5V4.91293H9.5V6.91293ZM3 20.6042V14.0076H1V20.6042H3ZM1.62235 14.9335C4.57964 16.1396 8.15107 16.8222 12 16.8222V14.8222C8.37834 14.8222 5.06742 14.1786 2.37765 13.0816L1.62235 14.9335ZM12 16.8222C15.8489 16.8222 19.4204 16.1396 22.3776 14.9335L21.6224 13.0816C18.9326 14.1786 15.6217 14.8222 12 14.8222V16.8222ZM21 14.0076V20.6042H23V14.0076H21ZM21 20.6042C21 20.7612 20.9453 20.8796 20.8898 20.9455C20.8355 21.0099 20.8073 21 20.8235 21V23C22.1763 23 23 21.7571 23 20.6042H21ZM20.8235 21H3.17647V23H20.8235V21ZM3.17647 21C3.19271 21 3.16446 21.0099 3.11022 20.9455C3.05472 20.8797 3 20.7612 3 20.6042H1C1 21.7571 1.82372 23 3.17647 23V21ZM13.3529 17.6303H11V19.6303H13.3529V17.6303ZM8.5 5.90657V5.91293H10.5V5.90657H8.5ZM15.9706 6.91293H16.0909V4.91293H15.9706V6.91293ZM16.0909 6.91293H20.8235V4.91293H16.0909V6.91293ZM14.5 6.91293H15.2955V4.91293H14.5V6.91293ZM15.2955 6.91293H16.0909V4.91293H15.2955V6.91293ZM16.2955 5.91293V5.30215H14.2955V5.91293H16.2955ZM8.03374 6.91292L8.82251 6.90951L8.81385 4.90953L8.02508 4.91294L8.03374 6.91292ZM8.82251 6.90951L9.50433 6.90656L9.49567 4.90658L8.81385 4.90953L8.82251 6.90951ZM7.81818 5.17515V5.90952H9.81818V5.17515H7.81818ZM13.3529 8.48382H12.1765V10.4838H13.3529V8.48382ZM12.1765 8.48382H11V10.4838H12.1765V8.48382ZM11.9933 1.00002C9.68745 1.00002 7.81818 2.86929 7.81818 5.17515H9.81818C9.81818 3.97386 10.792 3.00002 11.9933 3.00002V1.00002ZM16.2955 5.30215C16.2955 2.92615 14.3693 1.00002 11.9933 1.00002V3.00002C13.2648 3.00002 14.2955 4.03072 14.2955 5.30215H16.2955Z"/>
</svg>
