<?xml version="1.0" encoding="utf-8"?>
<!-- Generator: Adobe Illustrator 24.3.0, SVG Export Plug-In . SVG Version: 6.00 Build 0)  -->
<svg version="1.1" id="Слой_1" xmlns="http://www.w3.org/2000/svg" xmlns:xlink="http://www.w3.org/1999/xlink" x="0px" y="0px"
	 viewBox="0 0 22 22" style="enable-background:new 0 0 22 22;" xml:space="preserve">
<style type="text/css">
	.st0{fill:#A2ACBD;}
</style>
<path class="st0" d="M13.4,17.6c0,0.6-0.4,1-1,1H10c-0.6,0-1-0.4-1-1s0.4-1,1-1h2.4C12.9,16.6,13.4,17.1,13.4,17.6z M20.6,12.1
	l1.4-0.6V13v6.6c0,1.2-0.8,2.4-2.2,2.4H2.2C0.8,22,0,20.8,0,19.6V13v-1.5l1.4,0.6c2.7,1.1,6,1.7,9.6,1.7
	C14.6,13.8,17.9,13.2,20.6,12.1z M20,19.6v-5.2c-2.7,0.9-5.7,1.4-9,1.4c-3.3,0-6.3-0.5-9-1.4v5.2c0,0.2,0.1,0.3,0.1,0.3
	C2.2,20,2.2,20,2.2,20h17.6c0,0,0,0,0.1-0.1C19.9,19.9,20,19.8,20,19.6z M22,6.3v3.8v0.7L21.4,11c-2.9,1.3-6.5,2-10.4,2
	s-7.5-0.7-10.4-2L0,10.7v-0.7V6.3c0-1.2,0.8-2.4,2.2-2.4h4.7C7,1.7,8.8,0,11,0c2.2,0,4.1,1.7,4.3,3.9h4.6C21.2,3.9,22,5.2,22,6.3z
	 M8.8,3.9l0.7,0v0h3.8C13.1,2.8,12.1,2,11,2C9.9,2,9,2.8,8.8,3.9z M11,11c3.4,0,6.5-0.6,9-1.6V6.3C20,6.2,19.9,6,19.9,6
	c-0.1-0.1-0.1-0.1-0.1-0.1h-5.5H8.5h-1v0L7,5.9h0H2.2c0,0,0,0-0.1,0.1C2.1,6,2,6.2,2,6.3v3.1C4.5,10.4,7.6,11,11,11z M12.4,7.5H10
	c-0.6,0-1,0.4-1,1c0,0.6,0.4,1,1,1h2.4c0.6,0,1-0.4,1-1C13.4,7.9,12.9,7.5,12.4,7.5z"/>
</svg>
