<svg width="24" height="24" viewBox="0 0 24 24" fill="none" xmlns="http://www.w3.org/2000/svg" id="icon-detail">
<path d="M20 11.5V8L14 2H6C5.46957 2 4.96086 2.21071 4.58579 2.58579C4.21071 2.96086 4 3.46957 4 4V20C4 20.5304 4.21071 21.0391 4.58579 21.4142C4.96086 21.7893 5.46957 22 6 22H12" stroke="#A2ACBD" stroke-width="2" stroke-linecap="round" stroke-linejoin="round"/>
<path d="M14 2V8H20" stroke="#A2ACBD" stroke-width="2" stroke-linecap="round" stroke-linejoin="round"/>
<path d="M12 13H8" stroke="#A2ACBD" stroke-width="2" stroke-linecap="round" stroke-linejoin="round"/>
<path d="M10 17H8" stroke="#A2ACBD" stroke-width="2" stroke-linecap="round" stroke-linejoin="round"/>
<path d="M10 9H9H8" stroke="#A2ACBD" stroke-width="2" stroke-linecap="round" stroke-linejoin="round"/>
<path d="M16.3333 20.6667C18.1743 20.6667 19.6667 19.1743 19.6667 17.3333C19.6667 15.4924 18.1743 14 16.3333 14C14.4924 14 13 15.4924 13 17.3333C13 19.1743 14.4924 20.6667 16.3333 20.6667Z" stroke="#A2ACBD" stroke-width="2" stroke-linecap="round" stroke-linejoin="round"/>
<path d="M20.8125 21.8125L19 20" stroke="#A2ACBD" stroke-width="2" stroke-linecap="round" stroke-linejoin="round"/>
</svg>
